<svg xmlns="http://www.w3.org/2000/svg" width="116" height="44" viewBox="0 0 116 44">
    <defs>
        <linearGradient id="a" x1="108.433%" x2="17.451%" y1="225.748%" y2="-47.082%">
            <stop offset="0%" stop-color="#7E4BFF"/>
            <stop offset="100%" stop-color="#04D4B6"/>
        </linearGradient>
        <linearGradient id="b" x1="52.717%" x2="29.13%" y1="75.937%" y2="-139.855%">
            <stop offset="0%" stop-color="#7E4BFF"/>
            <stop offset="100%" stop-color="#04D4B6"/>
        </linearGradient>
        <path id="c" d="M62.167 33.323c.087 5.851 4.6 10.503 10.272 10.59h.006c6.172 0 8.672-3.376 9.46-4.828.24-.44.121-.985-.263-1.215l-.022-.014-.023-.01a1.297 1.297 0 0 0-.51-.115.806.806 0 0 0-.714.391c-1.638 2.683-4.23 3.988-7.928 3.988-4.592 0-8.343-3.807-8.474-8.538H81.72c.462 0 .807-.416.873-.818l.006-.073-.001-.183c-.394-5.574-4.759-9.776-10.153-9.776-5.676 0-10.191 4.651-10.278 10.6m10.278-8.755c4.105 0 7.6 3.085 8.295 7.244H64.067c.698-4.16 4.228-7.244 8.378-7.244"/>
        <linearGradient id="d" x1="109.697%" x2="-5.773%" y1="191.049%" y2="-81.78%">
            <stop offset="0%" stop-color="#7E4BFF"/>
            <stop offset="100%" stop-color="#04D4B6"/>
        </linearGradient>
        <linearGradient id="e" x1="51.405%" x2="49.015%" y1="127.407%" y2="-4.292%">
            <stop offset="0%" stop-color="#7E4BFF"/>
            <stop offset="100%" stop-color="#04D4B6"/>
        </linearGradient>
        <linearGradient id="f" x1="69.056%" x2="-32.023%" y1="100.918%" y2="-171.864%">
            <stop offset="0%" stop-color="#7E4BFF"/>
            <stop offset="100%" stop-color="#04D4B6"/>
        </linearGradient>
        <path id="g" d="M107.769 18.123V40.4c0 4.164 4.027 3.555 5.72 3.555h.023a.941.941 0 0 0 .928-.93c0-.498-.407-.888-.928-.888h-.349c-.647 0-2.194-.031-2.72-.266-.586-.263-.86-.73-.86-1.471V24.536h3.93c.52 0 .927-.39.927-.888a.941.941 0 0 0-.928-.93h-3.928v-4.595a.941.941 0 0 0-.928-.93c-.498 0-.887.409-.887.93"/>
        <linearGradient id="h" x1="87.682%" x2="-27.789%" y1="139.032%" y2="-133.797%">
            <stop offset="0%" stop-color="#7E4BFF"/>
            <stop offset="100%" stop-color="#04D4B6"/>
        </linearGradient>
    </defs>
    <g fill="none" fill-rule="evenodd">
        <path fill="url(#a)" d="M15.813 27.964c0 3.993 3.842 4.93 6.93 5.682l.3.072c3.053.715 5.69 1.332 5.69 4.053 0 2.404-2.792 4.36-6.223 4.36-3.675 0-6.517-2.527-6.537-2.545a.837.837 0 0 0-.596-.246.965.965 0 0 0-.676.287c-.344.345-.326.905.04 1.273.03.03 3.283 3.013 7.77 3.013 4.51 0 8.042-2.698 8.042-6.142 0-4.217-4.006-5.12-7.22-5.845l-.048-.011c-3.504-.846-5.652-1.488-5.652-3.95 0-1.886 2.188-3.42 4.877-3.42 3.164 0 4.908 1.757 5.083 1.94a.854.854 0 0 0 .673.319c.216 0 .43-.08.627-.246.368-.369.385-.928.04-1.273v.001c-.342-.383-2.48-2.564-6.423-2.564-3.693 0-6.697 2.351-6.697 5.242"/>
        <path fill="url(#b)" d="M107.769 18.123V40.4c0 4.164 4.027 3.555 5.72 3.555h.023a.941.941 0 0 0 .928-.93c0-.498-.407-.888-.928-.888h-.349c-.647 0-2.194-.031-2.72-.266-.586-.263-.86-.73-.86-1.471V24.536h3.93c.52 0 .927-.39.927-.888a.941.941 0 0 0-.928-.93h-3.928v-4.595a.941.941 0 0 0-.928-.93c-.498 0-.887.409-.887.93"/>
        <path fill="url(#d)" d="M32.217 33.323c.087 5.851 4.6 10.503 10.273 10.59h.006c6.171 0 8.671-3.376 9.46-4.827.239-.44.12-.986-.263-1.216l-.022-.014-.024-.01a1.298 1.298 0 0 0-.51-.115.805.805 0 0 0-.714.391c-1.637 2.683-4.23 3.988-7.927 3.988-4.593 0-8.344-3.807-8.474-8.538h17.747c.463 0 .808-.416.875-.818l.005-.073-.001-.183c-.394-5.574-4.758-9.776-10.152-9.776-5.677 0-10.192 4.651-10.279 10.6m10.279-8.755c4.104 0 7.599 3.085 8.295 7.244H34.117c.698-4.16 4.228-7.244 8.379-7.244"/>
        <path fill="url(#e)" d="M57.217 0a.908.908 0 0 0-.912.93v42.04c0 .53.399.93.928.93.498 0 .887-.409.887-.93V.93c0-.516-.381-.922-.871-.93h-.032z"/>
        <path fill="url(#f)" d="M85.334 33.315c0 5.8 4.871 10.555 10.86 10.598h.002a11.08 11.08 0 0 0 6.72-2.29l.04-.033c.327-.329.363-.827.069-1.266a.947.947 0 0 0-.74-.341.933.933 0 0 0-.507.15c-1.639 1.266-3.621 1.962-5.582 1.962-4.988 0-9.047-3.938-9.047-8.78 0-4.841 4.059-8.78 9.047-8.78 1.995 0 3.977.682 5.603 1.936.182.121.383.185.58.185.258 0 .488-.11.666-.334a1.025 1.025 0 0 0-.124-1.311c-1.865-1.479-4.253-2.293-6.725-2.293-5.99 0-10.862 4.754-10.862 10.597"/>
        <path fill="#FFF" d="M9.891 17.844a.837.837 0 0 1-.78.556H4.931c-.334 0-.67-.276-.78-.556L.03 4.806c-.113-.336.11-.559.39-.559h3.065c.334 0 .668.279.779.559l2.563 8.915c.111.334.223.334.334 0l2.563-8.915a.84.84 0 0 1 .78-.559h3.065c.334 0 .502.279.39.559L9.891 17.844zM14.572 12.661V9.374c0-2.897 1.393-5.739 6.407-5.739s6.41 2.842 6.41 5.74v3.286c0 2.954-1.395 5.74-6.41 5.74-5.07 0-6.407-2.786-6.407-5.74m8.581.11v-3.51c0-1.337-.724-2.117-2.23-2.117-1.504 0-2.228.78-2.228 2.118v3.51c0 1.338.725 2.12 2.228 2.12 1.56-.002 2.23-.727 2.23-2.12M28.78 12.661V9.374c0-2.897 1.394-5.739 6.409-5.739 5.016 0 6.409 2.842 6.409 5.74v3.286c0 2.954-1.338 5.74-6.41 5.74-5.014 0-6.407-2.786-6.407-5.74m8.637.11v-3.51c0-1.337-.725-2.117-2.23-2.117-1.504 0-2.227.78-2.227 2.118v3.51c0 1.338.724 2.12 2.228 2.12 1.504-.002 2.229-.727 2.229-2.12M51.85 15.336c-.056-.277-.293-.42-.575-.42-.055 0-.262.03-.262.03-.39.055-.724.052-1.003.055-.79.008-.836-1.003-.836-1.338V7.924c0-.335.278-.614.614-.614h1.782a.619.619 0 0 0 .613-.613l.168-2.228c0-.334-.224-.613-.557-.613h-2.063a.62.62 0 0 1-.614-.614V.513c0-.334-.279-.557-.556-.5l-3.01.445a.663.663 0 0 0-.554.67v2.23a.62.62 0 0 1-.613.613h-.725a.618.618 0 0 0-.612.613v2.23a.62.62 0 0 0 .612.615h.725c.333 0 .613.275.613.61v6.855c0 2.617 1.56 3.62 4.29 3.62.78 0 1.671-.112 2.451-.332.278-.055.537-.234.488-.707-.036-.321-.376-2.139-.376-2.139"/>
        <path fill="url(#h)" d="M62.167 33.323c.087 5.851 4.6 10.503 10.272 10.59h.006c6.172 0 8.672-3.376 9.46-4.828.24-.44.121-.985-.263-1.215l-.022-.014-.023-.01a1.297 1.297 0 0 0-.51-.115.806.806 0 0 0-.714.391c-1.638 2.683-4.23 3.988-7.928 3.988-4.592 0-8.343-3.807-8.474-8.538H81.72c.462 0 .807-.416.873-.818l.006-.073-.001-.183c-.394-5.574-4.759-9.776-10.153-9.776-5.676 0-10.191 4.651-10.278 10.6m10.278-8.755c4.105 0 7.6 3.085 8.295 7.244H64.067c.698-4.16 4.228-7.244 8.378-7.244"/>
    </g>
</svg>
